<?xml version="1.0" encoding="UTF-8" standalone="no" ?>
<!DOCTYPE svg PUBLIC "-//W3C//DTD SVG 1.1//EN" "http://www.w3.org/Graphics/SVG/1.1/DTD/svg11.dtd">
<svg xmlns="http://www.w3.org/2000/svg" xmlns:xlink="http://www.w3.org/1999/xlink" version="1.1" width="16" height="16" viewBox="0 0 16 16" xml:space="preserve">
<desc>Created with Fabric.js 5.3.0</desc>
<defs>
</defs>
<g transform="matrix(2.1841614634 0 0 2.1841614634 8.0366316932 8.0701833219)" id="H-tLfhtDdDMfKONuE8Alx"  >
<path style="stroke: rgb(24,201,86); stroke-width: 0; stroke-dasharray: none; stroke-linecap: butt; stroke-dashoffset: 0; stroke-linejoin: miter; stroke-miterlimit: 4; fill: rgb(230,230,230); fill-rule: nonzero; opacity: 1;" vector-effect="non-scaling-stroke"  transform=" translate(0, 0)" d="M 0 -3.66273 C 2.02183 -3.66273 3.66273 -2.0218299999999996 3.66273 0 C 3.66273 2.02183 2.0218299999999996 3.66273 0 3.66273 C -2.02183 3.66273 -3.66273 2.0218299999999996 -3.66273 0 C -3.66273 -2.02183 -2.0218299999999996 -3.66273 0 -3.66273 z" stroke-linecap="round" />
</g>
<g transform="matrix(0.7956058966 0 0 0.15 10.1291625182 1.7288693637)" id="ExUuXfEi-rl6oJnUoEgAG"  >
<path style="stroke: rgb(92,4,122); stroke-width: 0; stroke-dasharray: none; stroke-linecap: butt; stroke-dashoffset: 0; stroke-linejoin: miter; stroke-miterlimit: 4; fill: rgb(255,0,0); fill-rule: nonzero; opacity: 1;" vector-effect="non-scaling-stroke"  transform=" translate(0, 0)" d="M -3.66273 -3.66273 L 2.28162 -3.66273 L 2.28162 -3.66273 C 3.04439 -3.66273 3.6627300000000003 -0.38300999999999963 3.6627300000000003 3.6627400000000003 L 3.6627300000000003 3.6627400000000003 L -3.66274 3.6627400000000003 z" stroke-linecap="round" />
</g>
<g transform="matrix(1.0920798194 0 0 0.15 12.0366283516 6.1839362853)" id="WjGFgQYmXlhQbvD0U5pc3"  >
<path style="stroke: rgb(92,4,122); stroke-width: 0; stroke-dasharray: none; stroke-linecap: butt; stroke-dashoffset: 0; stroke-linejoin: miter; stroke-miterlimit: 4; fill: rgb(255,0,0); fill-rule: nonzero; opacity: 1;" vector-effect="non-scaling-stroke"  transform=" translate(0, 0)" d="M -3.66273 -3.66273 L 2.99735 -3.66273 L 2.99735 -3.66273 C 3.36484 -3.66273 3.66274 -1.49382 3.66274 1.1816700000000004 L 3.66274 3.6627400000000003 L -3.6627300000000003 3.6627400000000003 z" stroke-linecap="round" />
</g>
<g transform="matrix(2.1891605188 0 0 0.15 8.0183148055 8.5435043128)" id="23F9F9GVmfpF_Jv66dobS"  >
<path style="stroke: rgb(92,4,122); stroke-width: 0; stroke-dasharray: none; stroke-linecap: butt; stroke-dashoffset: 0; stroke-linejoin: miter; stroke-miterlimit: 4; fill: rgb(255,0,0); fill-rule: nonzero; opacity: 1;" vector-effect="non-scaling-stroke"  transform=" translate(0, 0)" d="M -3.66273 -2.14961 C -3.66273 -2.57038 -3.6515999999999997 -3.3338900000000002 -3.63067 -3.62336 C -3.6111199999999997 -3.89383 -3.5886899999999997 -3.62336 -3.56175 -3.62336 C -3.56175 -3.62336 1.1966 -3.62336 3.54026 -3.62336 L 3.54026 -3.62336 C 3.6079 -3.62336 3.66274 -2.82308 3.66274 -1.83589 L 3.66274 2.4286700000000003 L 3.66274 2.4286700000000003 C 3.66274 3.1319700000000004 3.6236699999999997 3.7021000000000006 3.57549 3.7021000000000006 C 1.2549299999999999 3.7021000000000006 -3.4565000000000006 3.7021000000000006 -3.4565000000000006 3.7021000000000006 C -3.5104700000000006 3.7021100000000007 -3.556520000000001 3.9138900000000008 -3.5962200000000006 3.3801700000000006 C -3.6402900000000007 2.7875900000000007 -3.6627300000000007 1.5669400000000007 -3.6627300000000007 0.6924100000000006 C -3.6627300000000007 -0.24545999999999935 -3.6627300000000007 -2.149619999999999 -3.6627300000000007 -2.149619999999999 z" stroke-linecap="round" />
</g>
<g transform="matrix(2.0856506007 0 0 0.15 7.9974309974 10.8580623083)" id="5w7VXNjliEy4ItSbyy5X8"  >
<path style="stroke: rgb(92,4,122); stroke-width: 0; stroke-dasharray: none; stroke-linecap: butt; stroke-dashoffset: 0; stroke-linejoin: miter; stroke-miterlimit: 4; fill: rgb(255,0,0); fill-rule: nonzero; opacity: 1;" vector-effect="non-scaling-stroke"  transform=" translate(0, 0)" d="M -3.66273 -3.66273 L 3.6627400000000003 -3.66273 L 3.6627400000000003 -1.87526 L 3.6627400000000003 -1.87526 C 3.6627400000000003 1.18329 3.4844200000000005 3.6627400000000003 3.2644500000000005 3.6627400000000003 L -3.2105899999999994 3.6627400000000003 L -3.2105899999999994 3.6627400000000003 C -3.4602999999999993 3.6627400000000003 -3.6627299999999994 0.8481100000000001 -3.6627299999999994 -2.62392 z" stroke-linecap="round" />
</g>
<g transform="matrix(1.8014856332 0 0 0.15 8.0366316932 12.9072426362)" id="bBk2zvazWrLBI-PRoTno7"  >
<path style="stroke: rgb(92,4,122); stroke-width: 0; stroke-dasharray: none; stroke-linecap: butt; stroke-dashoffset: 0; stroke-linejoin: miter; stroke-miterlimit: 4; fill: rgb(255,0,0); fill-rule: nonzero; opacity: 1;" vector-effect="non-scaling-stroke"  transform=" translate(0, 0)" d="M -3.66273 -3.66273 L 3.6627400000000003 -3.66273 L 3.6627400000000003 -3.66273 L 3.6627400000000003 -3.66273 C 3.6627400000000003 0.3830100000000005 3.38966 3.6627400000000003 3.0527900000000003 3.6627400000000003 L -3.0527699999999993 3.6627400000000003 L -3.0527699999999993 3.6627400000000003 C -3.389639999999999 3.6627400000000003 -3.6627199999999993 0.38302000000000014 -3.6627199999999993 -3.66273 z" stroke-linecap="round" />
</g>
<g transform="matrix(1.196553706 0 0 0.1313975491 8.0341847003 15.1016961598)" id="UpyJxXuD73D1RPSsEEOIY"  >
<path style="stroke: rgb(92,4,122); stroke-width: 0; stroke-dasharray: none; stroke-linecap: butt; stroke-dashoffset: 0; stroke-linejoin: miter; stroke-miterlimit: 4; fill: rgb(255,0,0); fill-rule: nonzero; opacity: 1;" vector-effect="non-scaling-stroke"  transform=" translate(0, 0)" d="M -3.66273 -3.76053 L 3.6627400000000003 -3.76053 L 3.6627400000000003 -3.76053 C 3.6628000000000003 -2.32316 3.1446400000000003 -0.4760500000000003 3.0610600000000003 0.7432999999999996 C 2.98606 1.8374699999999997 2.3032600000000003 3.1346799999999995 2.30764 3.5649299999999995 C 2.31212 4.004759999999999 2.35205 3.5653999999999995 2.20726 3.5649299999999995 C 0.5240700000000003 3.5649299999999995 -2.24227 3.5649299999999995 -2.24227 3.5649299999999995 C -2.4306 3.5654399999999993 -2.8504 2.4374799999999994 -2.91972 1.4388599999999996 C -2.9658599999999997 0.7740999999999996 -3.19737 0.4272899999999995 -3.2648099999999998 -0.4427500000000004 C -3.36042 -1.6762200000000005 -3.6627899999999998 -2.29734 -3.66273 -3.76053 z" stroke-linecap="round" />
</g>
<g transform="matrix(0.9634366414 0 0 0.15 11.5288110612 3.8106504128)" id="SCakrKyGL1WXkhsF3mYh1"  >
<path style="stroke: rgb(92,4,122); stroke-width: 0; stroke-dasharray: none; stroke-linecap: butt; stroke-dashoffset: 0; stroke-linejoin: miter; stroke-miterlimit: 4; fill: rgb(255,0,0); fill-rule: nonzero; opacity: 1;" vector-effect="non-scaling-stroke"  transform=" translate(0, 0)" d="M -3.66273 -3.66273 L 2.63687 -3.66273 L 2.63687 -3.66273 C 3.20344 -3.66273 3.6627400000000003 -0.71272 3.6627400000000003 2.92631 L 3.6627400000000003 3.66273 L -3.66273 3.66273 z" stroke-linecap="round" />
</g>
<g transform="matrix(1.0825 0 0 1.0825 4.035091661 4.035091661)" id="pFg3x5zPeiM6kAVCB-QYm"  >
<path style="stroke: rgb(109,185,202); stroke-width: 0; stroke-dasharray: none; stroke-linecap: butt; stroke-dashoffset: 0; stroke-linejoin: miter; stroke-miterlimit: 4; fill: rgb(39,92,254); fill-rule: nonzero; opacity: 1;" vector-effect="non-scaling-stroke"  transform=" translate(0, 0)" d="M -3.66273 3.66273 C -3.66273 -0.3830100000000005 -0.38300999999999963 -3.6627400000000003 3.6627400000000003 -3.6627400000000003 L 3.6627400000000003 -3.6627400000000003 L 3.6627400000000003 3.66273 z" stroke-linecap="round" />
</g>
<g transform="matrix(0.3988003625 0 0 0.3988003625 7.0483722407 1.3123355108)" id="_nzotwgx4RPXAWQ0ZVzmh"  >
<path style="stroke: rgb(207,102,71); stroke-width: 0; stroke-dasharray: none; stroke-linecap: butt; stroke-dashoffset: 0; stroke-linejoin: miter; stroke-miterlimit: 4; fill: rgb(255,255,255); fill-rule: nonzero; opacity: 1;" vector-effect="non-scaling-stroke"  transform=" translate(-1.0982176863, -1.0444670868)" d="M 1.09822 0 L 1.42401 0.70632 L 2.19643 0.7978999999999999 L 1.62536 1.32601 L 1.7769499999999998 2.08893 L 1.09821 1.709 L 0.4194699999999999 2.08893 L 0.5710599999999999 1.32601 L -0.000010000000000065512 0.7978999999999999 L 0.7724099999999999 0.70632 z" stroke-linecap="round" />
</g>
<g transform="matrix(0.3988003625 0 0 0.3988003625 5.1256663589 1.4386770665)" id="6HcZO6_i2r9K61abKU71k"  >
<path style="stroke: rgb(207,102,71); stroke-width: 0; stroke-dasharray: none; stroke-linecap: butt; stroke-dashoffset: 0; stroke-linejoin: miter; stroke-miterlimit: 4; fill: rgb(255,255,255); fill-rule: nonzero; opacity: 1;" vector-effect="non-scaling-stroke"  transform=" translate(-1.09821, -1.044465)" d="M 1.09822 0 L 1.42401 0.70632 L 2.19643 0.7978999999999999 L 1.62536 1.32601 L 1.7769499999999998 2.08893 L 1.09821 1.709 L 0.4194699999999999 2.08893 L 0.5710599999999999 1.32601 L -0.000010000000000065512 0.7978999999999999 L 0.7724099999999999 0.70632 z" stroke-linecap="round" />
</g>
<g transform="matrix(0.3988003625 0 0 0.3988003625 7.2822834079 2.5619354049)" id="cA3uyIVlW4BKrT3JGqvvE"  >
<path style="stroke: rgb(207,102,71); stroke-width: 0; stroke-dasharray: none; stroke-linecap: butt; stroke-dashoffset: 0; stroke-linejoin: miter; stroke-miterlimit: 4; fill: rgb(255,255,255); fill-rule: nonzero; opacity: 1;" vector-effect="non-scaling-stroke"  transform=" translate(-1.09821, -1.044465)" d="M 1.09822 0 L 1.42401 0.70632 L 2.19643 0.7978999999999999 L 1.62536 1.32601 L 1.7769499999999998 2.08893 L 1.09821 1.709 L 0.4194699999999999 2.08893 L 0.5710599999999999 1.32601 L -0.000010000000000065512 0.7978999999999999 L 0.7724099999999999 0.70632 z" stroke-linecap="round" />
</g>
<g transform="matrix(0.3988003625 0 0 0.3988003625 4.0894986289 2.5619354049)" id="uD4ys498_aMl7KZ0Q3AaZ"  >
<path style="stroke: rgb(207,102,71); stroke-width: 0; stroke-dasharray: none; stroke-linecap: butt; stroke-dashoffset: 0; stroke-linejoin: miter; stroke-miterlimit: 4; fill: rgb(255,255,255); fill-rule: nonzero; opacity: 1;" vector-effect="non-scaling-stroke"  transform=" translate(-1.09821, -1.044465)" d="M 1.09822 0 L 1.42401 0.70632 L 2.19643 0.7978999999999999 L 1.62536 1.32601 L 1.7769499999999998 2.08893 L 1.09821 1.709 L 0.4194699999999999 2.08893 L 0.5710599999999999 1.32601 L -0.000010000000000065512 0.7978999999999999 L 0.7724099999999999 0.70632 z" stroke-linecap="round" />
</g>
<g transform="matrix(0.3988003625 0 0 0.3988003625 5.8584357981 2.5619354049)" id="aphvXCMxUkO8G-n8kCHJ_"  >
<path style="stroke: rgb(207,102,71); stroke-width: 0; stroke-dasharray: none; stroke-linecap: butt; stroke-dashoffset: 0; stroke-linejoin: miter; stroke-miterlimit: 4; fill: rgb(255,255,255); fill-rule: nonzero; opacity: 1;" vector-effect="non-scaling-stroke"  transform=" translate(-1.09821, -1.044465)" d="M 1.09822 0 L 1.42401 0.70632 L 2.19643 0.7978999999999999 L 1.62536 1.32601 L 1.7769499999999998 2.08893 L 1.09821 1.709 L 0.4194699999999999 2.08893 L 0.5710599999999999 1.32601 L -0.000010000000000065512 0.7978999999999999 L 0.7724099999999999 0.70632 z" stroke-linecap="round" />
</g>
<g transform="matrix(0.3988003625 0 0 0.3988003625 6.6104017067 3.410291714)" id="pjSu60dtO7UpkRpK_5HYs"  >
<path style="stroke: rgb(207,102,71); stroke-width: 0; stroke-dasharray: none; stroke-linecap: butt; stroke-dashoffset: 0; stroke-linejoin: miter; stroke-miterlimit: 4; fill: rgb(255,255,255); fill-rule: nonzero; opacity: 1;" vector-effect="non-scaling-stroke"  transform=" translate(-1.09821, -1.044465)" d="M 1.09822 0 L 1.42401 0.70632 L 2.19643 0.7978999999999999 L 1.62536 1.32601 L 1.7769499999999998 2.08893 L 1.09821 1.709 L 0.4194699999999999 2.08893 L 0.5710599999999999 1.32601 L -0.000010000000000065512 0.7978999999999999 L 0.7724099999999999 0.70632 z" stroke-linecap="round" />
</g>
<g transform="matrix(0.3988003625 0 0 0.3988003625 4.6876958249 3.5366332696)" id="LXH-uUPXn4Oc6FUepkrKR"  >
<path style="stroke: rgb(207,102,71); stroke-width: 0; stroke-dasharray: none; stroke-linecap: butt; stroke-dashoffset: 0; stroke-linejoin: miter; stroke-miterlimit: 4; fill: rgb(255,255,255); fill-rule: nonzero; opacity: 1;" vector-effect="non-scaling-stroke"  transform=" translate(-1.09821, -1.044465)" d="M 1.09822 0 L 1.42401 0.70632 L 2.19643 0.7978999999999999 L 1.62536 1.32601 L 1.7769499999999998 2.08893 L 1.09821 1.709 L 0.4194699999999999 2.08893 L 0.5710599999999999 1.32601 L -0.000010000000000065512 0.7978999999999999 L 0.7724099999999999 0.70632 z" stroke-linecap="round" />
</g>
<g transform="matrix(0.3988003625 0 0 0.3988003625 6.8443128738 4.659891608)" id="SMwY1GKLPfgOMyhyh_2RR"  >
<path style="stroke: rgb(207,102,71); stroke-width: 0; stroke-dasharray: none; stroke-linecap: butt; stroke-dashoffset: 0; stroke-linejoin: miter; stroke-miterlimit: 4; fill: rgb(255,255,255); fill-rule: nonzero; opacity: 1;" vector-effect="non-scaling-stroke"  transform=" translate(-1.09821, -1.044465)" d="M 1.09822 0 L 1.42401 0.70632 L 2.19643 0.7978999999999999 L 1.62536 1.32601 L 1.7769499999999998 2.08893 L 1.09821 1.709 L 0.4194699999999999 2.08893 L 0.5710599999999999 1.32601 L -0.000010000000000065512 0.7978999999999999 L 0.7724099999999999 0.70632 z" stroke-linecap="round" />
</g>
<g transform="matrix(0.3988003625 0 0 0.3988003625 3.6515280948 4.659891608)" id="E6pws5tuGhjYUBemHX-AQ"  >
<path style="stroke: rgb(207,102,71); stroke-width: 0; stroke-dasharray: none; stroke-linecap: butt; stroke-dashoffset: 0; stroke-linejoin: miter; stroke-miterlimit: 4; fill: rgb(255,255,255); fill-rule: nonzero; opacity: 1;" vector-effect="non-scaling-stroke"  transform=" translate(-1.09821, -1.044465)" d="M 1.09822 0 L 1.42401 0.70632 L 2.19643 0.7978999999999999 L 1.62536 1.32601 L 1.7769499999999998 2.08893 L 1.09821 1.709 L 0.4194699999999999 2.08893 L 0.5710599999999999 1.32601 L -0.000010000000000065512 0.7978999999999999 L 0.7724099999999999 0.70632 z" stroke-linecap="round" />
</g>
<g transform="matrix(0.3988003625 0 0 0.3988003625 2.9796463936 3.5366332696)" id="uXIqVed0OyMQ9a3zKLknH"  >
<path style="stroke: rgb(207,102,71); stroke-width: 0; stroke-dasharray: none; stroke-linecap: butt; stroke-dashoffset: 0; stroke-linejoin: miter; stroke-miterlimit: 4; fill: rgb(255,255,255); fill-rule: nonzero; opacity: 1;" vector-effect="non-scaling-stroke"  transform=" translate(-1.09821, -1.044465)" d="M 1.09822 0 L 1.42401 0.70632 L 2.19643 0.7978999999999999 L 1.62536 1.32601 L 1.7769499999999998 2.08893 L 1.09821 1.709 L 0.4194699999999999 2.08893 L 0.5710599999999999 1.32601 L -0.000010000000000065512 0.7978999999999999 L 0.7724099999999999 0.70632 z" stroke-linecap="round" />
</g>
<g transform="matrix(0.3988003625 0 0 0.3988003625 5.420465264 4.659891608)" id="q02aFFB22CVuJmHcUDg-q"  >
<path style="stroke: rgb(207,102,71); stroke-width: 0; stroke-dasharray: none; stroke-linecap: butt; stroke-dashoffset: 0; stroke-linejoin: miter; stroke-miterlimit: 4; fill: rgb(255,255,255); fill-rule: nonzero; opacity: 1;" vector-effect="non-scaling-stroke"  transform=" translate(-1.09821, -1.044465)" d="M 1.09822 0 L 1.42401 0.70632 L 2.19643 0.7978999999999999 L 1.62536 1.32601 L 1.7769499999999998 2.08893 L 1.09821 1.709 L 0.4194699999999999 2.08893 L 0.5710599999999999 1.32601 L -0.000010000000000065512 0.7978999999999999 L 0.7724099999999999 0.70632 z" stroke-linecap="round" />
</g>
<g transform="matrix(0.3988003625 0 0 0.3988003625 6.3764905396 5.5591363383)" id="BBduzymkMiLaSJ-jUTksn"  >
<path style="stroke: rgb(207,102,71); stroke-width: 0; stroke-dasharray: none; stroke-linecap: butt; stroke-dashoffset: 0; stroke-linejoin: miter; stroke-miterlimit: 4; fill: rgb(255,255,255); fill-rule: nonzero; opacity: 1;" vector-effect="non-scaling-stroke"  transform=" translate(-1.09821, -1.044465)" d="M 1.09822 0 L 1.42401 0.70632 L 2.19643 0.7978999999999999 L 1.62536 1.32601 L 1.7769499999999998 2.08893 L 1.09821 1.709 L 0.4194699999999999 2.08893 L 0.5710599999999999 1.32601 L -0.000010000000000065512 0.7978999999999999 L 0.7724099999999999 0.70632 z" stroke-linecap="round" />
</g>
<g transform="matrix(0.3988003625 0 0 0.3988003625 4.4537846578 5.6854778939)" id="qoXXD6gBkUrOG5HnD7fWc"  >
<path style="stroke: rgb(207,102,71); stroke-width: 0; stroke-dasharray: none; stroke-linecap: butt; stroke-dashoffset: 0; stroke-linejoin: miter; stroke-miterlimit: 4; fill: rgb(255,255,255); fill-rule: nonzero; opacity: 1;" vector-effect="non-scaling-stroke"  transform=" translate(-1.09821, -1.044465)" d="M 1.09822 0 L 1.42401 0.70632 L 2.19643 0.7978999999999999 L 1.62536 1.32601 L 1.7769499999999998 2.08893 L 1.09821 1.709 L 0.4194699999999999 2.08893 L 0.5710599999999999 1.32601 L -0.000010000000000065512 0.7978999999999999 L 0.7724099999999999 0.70632 z" stroke-linecap="round" />
</g>
<g transform="matrix(0.3988003625 0 0 0.3988003625 6.6104017067 6.8087362323)" id="QOSX1Rnee2u6HxrHYS60J"  >
<path style="stroke: rgb(207,102,71); stroke-width: 0; stroke-dasharray: none; stroke-linecap: butt; stroke-dashoffset: 0; stroke-linejoin: miter; stroke-miterlimit: 4; fill: rgb(255,255,255); fill-rule: nonzero; opacity: 1;" vector-effect="non-scaling-stroke"  transform=" translate(-1.09821, -1.044465)" d="M 1.09822 0 L 1.42401 0.70632 L 2.19643 0.7978999999999999 L 1.62536 1.32601 L 1.7769499999999998 2.08893 L 1.09821 1.709 L 0.4194699999999999 2.08893 L 0.5710599999999999 1.32601 L -0.000010000000000065512 0.7978999999999999 L 0.7724099999999999 0.70632 z" stroke-linecap="round" />
</g>
<g transform="matrix(0.3988003625 0 0 0.3988003625 3.4176169277 6.8087362323)" id="cyuMbol_-iM433nFYavvx"  >
<path style="stroke: rgb(207,102,71); stroke-width: 0; stroke-dasharray: none; stroke-linecap: butt; stroke-dashoffset: 0; stroke-linejoin: miter; stroke-miterlimit: 4; fill: rgb(255,255,255); fill-rule: nonzero; opacity: 1;" vector-effect="non-scaling-stroke"  transform=" translate(-1.09821, -1.044465)" d="M 1.09822 0 L 1.42401 0.70632 L 2.19643 0.7978999999999999 L 1.62536 1.32601 L 1.7769499999999998 2.08893 L 1.09821 1.709 L 0.4194699999999999 2.08893 L 0.5710599999999999 1.32601 L -0.000010000000000065512 0.7978999999999999 L 0.7724099999999999 0.70632 z" stroke-linecap="round" />
</g>
<g transform="matrix(0.3988003625 0 0 0.3988003625 1.9733304636 4.659891608)" id="mEXGlbvjrLd7wanjcfIc_"  >
<path style="stroke: rgb(207,102,71); stroke-width: 0; stroke-dasharray: none; stroke-linecap: butt; stroke-dashoffset: 0; stroke-linejoin: miter; stroke-miterlimit: 4; fill: rgb(255,255,255); fill-rule: nonzero; opacity: 1;" vector-effect="non-scaling-stroke"  transform=" translate(-1.09821, -1.044465)" d="M 1.09822 0 L 1.42401 0.70632 L 2.19643 0.7978999999999999 L 1.62536 1.32601 L 1.7769499999999998 2.08893 L 1.09821 1.709 L 0.4194699999999999 2.08893 L 0.5710599999999999 1.32601 L -0.000010000000000065512 0.7978999999999999 L 0.7724099999999999 0.70632 z" stroke-linecap="round" />
</g>
<g transform="matrix(0.3988003625 0 0 0.3988003625 2.7755870266 5.685477894)" id="Mg1KL9CAPVQSYbmFcc96X"  >
<path style="stroke: rgb(207,102,71); stroke-width: 0; stroke-dasharray: none; stroke-linecap: butt; stroke-dashoffset: 0; stroke-linejoin: miter; stroke-miterlimit: 4; fill: rgb(255,255,255); fill-rule: nonzero; opacity: 1;" vector-effect="non-scaling-stroke"  transform=" translate(-1.09821, -1.044465)" d="M 1.09822 0 L 1.42401 0.70632 L 2.19643 0.7978999999999999 L 1.62536 1.32601 L 1.7769499999999998 2.08893 L 1.09821 1.709 L 0.4194699999999999 2.08893 L 0.5710599999999999 1.32601 L -0.000010000000000065512 0.7978999999999999 L 0.7724099999999999 0.70632 z" stroke-linecap="round" />
</g>
<g transform="matrix(0.3988003625 0 0 0.3988003625 1.7394192964 6.8087362324)" id="dHhzSz6Z7cN1LHjtfw5g5"  >
<path style="stroke: rgb(207,102,71); stroke-width: 0; stroke-dasharray: none; stroke-linecap: butt; stroke-dashoffset: 0; stroke-linejoin: miter; stroke-miterlimit: 4; fill: rgb(255,255,255); fill-rule: nonzero; opacity: 1;" vector-effect="non-scaling-stroke"  transform=" translate(-1.09821, -1.044465)" d="M 1.09822 0 L 1.42401 0.70632 L 2.19643 0.7978999999999999 L 1.62536 1.32601 L 1.7769499999999998 2.08893 L 1.09821 1.709 L 0.4194699999999999 2.08893 L 0.5710599999999999 1.32601 L -0.000010000000000065512 0.7978999999999999 L 0.7724099999999999 0.70632 z" stroke-linecap="round" />
</g>
<g transform="matrix(0.3988003625 0 0 0.3988003625 5.1865540969 6.8087362323)" id="eBElLTizdpLloosinw3I5"  >
<path style="stroke: rgb(207,102,71); stroke-width: 0; stroke-dasharray: none; stroke-linecap: butt; stroke-dashoffset: 0; stroke-linejoin: miter; stroke-miterlimit: 4; fill: rgb(255,255,255); fill-rule: nonzero; opacity: 1;" vector-effect="non-scaling-stroke"  transform=" translate(-1.09821, -1.044465)" d="M 1.09822 0 L 1.42401 0.70632 L 2.19643 0.7978999999999999 L 1.62536 1.32601 L 1.7769499999999998 2.08893 L 1.09821 1.709 L 0.4194699999999999 2.08893 L 0.5710599999999999 1.32601 L -0.000010000000000065512 0.7978999999999999 L 0.7724099999999999 0.70632 z" stroke-linecap="round" />
</g>
</svg>