<?xml version="1.0" encoding="UTF-8" standalone="no" ?>
<!DOCTYPE svg PUBLIC "-//W3C//DTD SVG 1.1//EN" "http://www.w3.org/Graphics/SVG/1.1/DTD/svg11.dtd">
<svg xmlns="http://www.w3.org/2000/svg" xmlns:xlink="http://www.w3.org/1999/xlink" version="1.1" width="16" height="16" viewBox="0 0 53.4759 53.4759" xml:space="preserve">
<desc>Created with Fabric.js 5.3.0</desc>
<defs>
</defs>
<g transform="matrix(1 0 0 1 27.0279842703 26.7379679144)" id="vBUXTFoavIghQ8ueeeyzk"  >
<path style="stroke: rgb(0,251,255); stroke-width: 0; stroke-dasharray: none; stroke-linecap: butt; stroke-dashoffset: 0; stroke-linejoin: miter; stroke-miterlimit: 4; fill: rgb(0,220,255); fill-rule: nonzero; opacity: 1;" vector-effect="non-scaling-stroke"  transform=" translate(0, 0)" d="M 0 -26.73797 C 14.75936 -26.73797 26.73797 -14.759360000000001 26.73797 0 C 26.73797 14.75936 14.759360000000001 26.73797 0 26.73797 C -14.75936 26.73797 -26.73797 14.759360000000001 -26.73797 0 C -26.73797 -14.75936 -14.759360000000001 -26.73797 0 -26.73797 z" stroke-linecap="round" />
</g>
<g transform="matrix(3.9477954481 0 0 1 26.9658159026 26.7379679144)" id="eLonf0ZpS7HBGOtlp5Kiy"  >
<path style="stroke: rgb(0,0,0); stroke-width: 0; stroke-dasharray: none; stroke-linecap: butt; stroke-dashoffset: 0; stroke-linejoin: miter; stroke-miterlimit: 4; fill: rgb(255,255,255); fill-rule: nonzero; opacity: 1;" vector-effect="non-scaling-stroke"  transform=" translate(0, 0)" d="M -6.8306 -6.8306 L 6.8306 -6.8306 L 6.8306 6.8306 L -6.8306 6.8306 z" stroke-linecap="round" />
</g>
<g transform="matrix(0.1366120219 0 0 0.1366120219 27.0279842703 26.7379679144)" id="4tQrIWxscO7xAamUDMI6C"  >
<path style="stroke: none; stroke-width: 1; stroke-dasharray: none; stroke-linecap: butt; stroke-dashoffset: 0; stroke-linejoin: miter; stroke-miterlimit: 4; fill: rgb(255,215,0); fill-rule: nonzero; opacity: 1;" vector-effect="non-scaling-stroke"  transform=" translate(-40, -40)" d="M 40 19.294 L 50.718 0 L 50.353 22.068 L 69.282 10.718000000000002 L 57.931999999999995 29.647 L 80 29.282 L 60.706 40 L 80 50.718 L 57.932 50.353 L 69.282 69.282 L 50.352999999999994 57.931999999999995 L 50.718 80 L 40 60.706 L 29.282 80 L 29.647 57.932 L 10.718 69.282 L 22.067999999999998 50.352999999999994 L 0 50.718 L 19.294 40 L 0 29.282 L 22.068 29.647 L 10.718000000000002 10.718 L 29.647 22.067999999999998 L 29.282 0 L 40 19.294 z" stroke-linecap="round" />
</g>
<g transform="matrix(0.0965992871 0.0965992871 -0.0965992871 0.0965992871 27.0279842703 26.7379679144)" id="Tnjl9kAynZgErZ4BddwEB"  >
<path style="stroke: none; stroke-width: 1; stroke-dasharray: none; stroke-linecap: butt; stroke-dashoffset: 0; stroke-linejoin: miter; stroke-miterlimit: 4; fill: rgb(255,215,0); fill-rule: nonzero; opacity: 1;" vector-effect="non-scaling-stroke"  transform=" translate(-40, -40)" d="M 40 19.294 L 50.718 0 L 50.353 22.068 L 69.282 10.718000000000002 L 57.931999999999995 29.647 L 80 29.282 L 60.706 40 L 80 50.718 L 57.932 50.353 L 69.282 69.282 L 50.352999999999994 57.931999999999995 L 50.718 80 L 40 60.706 L 29.282 80 L 29.647 57.932 L 10.718 69.282 L 22.067999999999998 50.352999999999994 L 0 50.718 L 19.294 40 L 0 29.282 L 22.068 29.647 L 10.718000000000002 10.718 L 29.647 22.067999999999998 L 29.282 0 L 40 19.294 z" stroke-linecap="round" />
</g>
<g transform="matrix(0.6027799057 0 0 -0.6027799057 27.0279842703 26.7379679144)" id="Yk9ZY5nawPV9Jn4DWKW0a"  >
<path style="stroke: rgb(0,0,0); stroke-width: 0; stroke-dasharray: none; stroke-linecap: butt; stroke-dashoffset: 0; stroke-linejoin: miter; stroke-miterlimit: 4; fill: rgb(255,207,0); fill-rule: nonzero; opacity: 1;" vector-effect="non-scaling-stroke"  transform=" translate(0, 0)" d="M 0 -6.8306 C 3.77049 -6.8306 6.8306 -3.7704899999999997 6.8306 0 C 6.8306 3.77049 3.7704899999999997 6.8306 0 6.8306 C -3.77049 6.8306 -6.8306 3.7704899999999997 -6.8306 0 C -6.8306 -3.77049 -3.7704899999999997 -6.8306 0 -6.8306 z" stroke-linecap="round" />
</g>
</svg>